<svg width="26" height="26" viewBox="0 0 26 26" fill="none" xmlns="http://www.w3.org/2000/svg">
<path d="M22.1927 3.80766C19.7547 1.36966 16.448 -2.56885e-08 13.0002 0C9.5523 2.56885e-08 6.24566 1.36966 3.80766 3.80766C1.36966 6.24566 2.56885e-08 9.5523 0 13.0002C-2.56885e-08 16.448 1.36966 19.7547 3.80766 22.1927C6.24566 24.6307 9.5523 26.0003 13.0002 26.0003C16.448 26.0003 19.7547 24.6307 22.1927 22.1927C24.6307 19.7547 26.0003 16.448 26.0003 13.0002C26.0003 9.5523 24.6307 6.24566 22.1927 3.80766ZM8.00016 21.0002C8.00016 20.4697 8.21087 19.961 8.58595 19.5859C8.96102 19.2109 9.46973 19.0002 10.0002 19.0002C10.5306 19.0002 11.0393 19.2109 11.4144 19.5859C11.7894 19.961 12.0002 20.4697 12.0002 21.0002V23.9489C10.6056 23.8228 9.24799 23.4317 8.00016 22.7964V21.0002ZM14.0002 21.0002C14.0002 20.4697 14.2109 19.961 14.5859 19.5859C14.961 19.2109 15.4697 19.0002 16.0002 19.0002C16.5306 19.0002 17.0393 19.2109 17.4144 19.5859C17.7894 19.961 18.0002 20.4697 18.0002 21.0002V22.7964C16.7523 23.4317 15.3947 23.8228 14.0002 23.9489V21.0002ZM10.4089 14.0002H15.5914L17.0389 17.1377C16.3188 16.9436 15.5588 16.9551 14.845 17.171C14.1311 17.3868 13.492 17.7984 13.0002 18.3589C12.5083 17.7984 11.8692 17.3868 11.1554 17.171C10.4415 16.9551 9.68147 16.9436 8.96141 17.1377L10.4089 14.0002ZM11.3327 12.0002L13.0002 8.38641L14.6677 12.0002H11.3327ZM20.7777 20.7789C20.5277 21.0289 20.2677 21.2627 20.0002 21.4839V19.0002C20.0003 18.8555 19.9688 18.7125 19.9077 18.5814L13.9077 5.58141C13.8275 5.40822 13.6995 5.26159 13.5387 5.15883C13.3778 5.05607 13.191 5.00146 13.0002 5.00146C12.8093 5.00146 12.6225 5.05607 12.4617 5.15883C12.3009 5.26159 12.1728 5.40822 12.0927 5.58141L6.09266 18.5814C6.03156 18.7125 5.99999 18.8555 6.00016 19.0002V21.4839C5.73266 21.2627 5.47266 21.0289 5.22266 20.7789C3.68409 19.2406 2.63625 17.2806 2.21166 15.1468C1.78707 13.0129 2.00479 10.8011 2.8373 8.79098C3.66981 6.78088 5.07971 5.06281 6.88869 3.85403C8.69767 2.64525 10.8245 2.00006 13.0002 2.00006C15.1758 2.00006 17.3026 2.64525 19.1116 3.85403C20.9206 5.06281 22.3305 6.78088 23.163 8.79098C23.9955 10.8011 24.2132 13.0129 23.7887 15.1468C23.3641 17.2806 22.3162 19.2406 20.7777 20.7789Z" fill="white"/>
</svg>
