<svg width="26" height="26" viewBox="0 0 26 26" fill="none" xmlns="http://www.w3.org/2000/svg">
<path d="M22.1927 3.80766C19.7547 1.36966 16.448 -2.56885e-08 13.0002 0C9.5523 2.56885e-08 6.24566 1.36966 3.80766 3.80766C1.36966 6.24566 2.56885e-08 9.5523 0 13.0002C-2.56885e-08 16.448 1.36966 19.7547 3.80766 22.1927C6.24566 24.6307 9.5523 26.0003 13.0002 26.0003C16.448 26.0003 19.7547 24.6307 22.1927 22.1927C24.6307 19.7547 26.0003 16.448 26.0003 13.0002C26.0003 9.5523 24.6307 6.24566 22.1927 3.80766ZM20.7789 20.7789C19.2405 22.3171 17.2805 23.3646 15.1467 23.7889C13.013 24.2132 10.8013 23.9953 8.79142 23.1627C6.78152 22.3301 5.06365 20.9202 3.85503 19.1113C2.64641 17.3024 2.00131 15.1757 2.00131 13.0002C2.00131 10.8246 2.64641 8.69796 3.85503 6.88906C5.06365 5.08015 6.78152 3.67025 8.79142 2.83764C10.8013 2.00503 13.013 1.7871 15.1467 2.2114C17.2805 2.63571 19.2405 3.68319 20.7789 5.22141C22.8388 7.28614 23.9956 10.0836 23.9956 13.0002C23.9956 15.9167 22.8388 18.7142 20.7789 20.7789ZM17.7077 17.2927C17.8953 17.4803 18.0007 17.7348 18.0007 18.0002C18.0007 18.2655 17.8953 18.52 17.7077 18.7077C17.52 18.8953 17.2655 19.0007 17.0002 19.0007C16.7348 19.0007 16.4803 18.8953 16.2927 18.7077L13.0002 15.4139L9.70766 18.7077C9.61475 18.8006 9.50445 18.8743 9.38305 18.9246C9.26166 18.9748 9.13155 19.0007 9.00016 19.0007C8.86876 19.0007 8.73866 18.9748 8.61726 18.9246C8.49587 18.8743 8.38557 18.8006 8.29266 18.7077C8.19975 18.6147 8.12605 18.5044 8.07576 18.3831C8.02548 18.2617 7.9996 18.1316 7.9996 18.0002C7.9996 17.8688 8.02548 17.7387 8.07576 17.6173C8.12605 17.4959 8.19975 17.3856 8.29266 17.2927L12.2927 13.2927C12.3855 13.1997 12.4958 13.1259 12.6172 13.0756C12.7386 13.0253 12.8687 12.9994 13.0002 12.9994C13.1316 12.9994 13.2617 13.0253 13.3831 13.0756C13.5045 13.1259 13.6148 13.1997 13.7077 13.2927L17.7077 17.2927ZM17.7077 10.2927C17.8006 10.3856 17.8743 10.4959 17.9246 10.6173C17.9748 10.7387 18.0007 10.8688 18.0007 11.0002C18.0007 11.1316 17.9748 11.2617 17.9246 11.3831C17.8743 11.5044 17.8006 11.6147 17.7077 11.7077C17.6147 11.8006 17.5044 11.8743 17.3831 11.9246C17.2617 11.9748 17.1316 12.0007 17.0002 12.0007C16.8688 12.0007 16.7387 11.9748 16.6173 11.9246C16.4959 11.8743 16.3856 11.8006 16.2927 11.7077L13.0002 8.41391L9.70766 11.7077C9.52002 11.8953 9.26552 12.0007 9.00016 12.0007C8.73479 12.0007 8.4803 11.8953 8.29266 11.7077C8.10502 11.52 7.9996 11.2655 7.9996 11.0002C7.9996 10.7348 8.10502 10.4803 8.29266 10.2927L12.2927 6.29266C12.3855 6.19968 12.4958 6.12592 12.6172 6.0756C12.7386 6.02527 12.8687 5.99937 13.0002 5.99937C13.1316 5.99937 13.2617 6.02527 13.3831 6.0756C13.5045 6.12592 13.6148 6.19968 13.7077 6.29266L17.7077 10.2927Z" fill="white"/>
</svg>
