<svg width="26" height="26" viewBox="0 0 26 26" fill="none" xmlns="http://www.w3.org/2000/svg">
<path d="M23.8333 2H20.5833V1C20.5833 0.734784 20.4692 0.48043 20.266 0.292893C20.0629 0.105357 19.7873 0 19.5 0C19.2127 0 18.9371 0.105357 18.734 0.292893C18.5308 0.48043 18.4167 0.734784 18.4167 1V2H7.58333V1C7.58333 0.734784 7.4692 0.48043 7.26603 0.292893C7.06287 0.105357 6.78732 0 6.5 0C6.21268 0 5.93713 0.105357 5.73397 0.292893C5.5308 0.48043 5.41667 0.734784 5.41667 1V2H2.16667C1.59203 2 1.04093 2.21071 0.634602 2.58579C0.228273 2.96086 0 3.46957 0 4V24C0 24.5304 0.228273 25.0391 0.634602 25.4142C1.04093 25.7893 1.59203 26 2.16667 26H23.8333C24.408 26 24.9591 25.7893 25.3654 25.4142C25.7717 25.0391 26 24.5304 26 24V4C26 3.46957 25.7717 2.96086 25.3654 2.58579C24.9591 2.21071 24.408 2 23.8333 2ZM5.41667 4V5C5.41667 5.26522 5.5308 5.51957 5.73397 5.70711C5.93713 5.89464 6.21268 6 6.5 6C6.78732 6 7.06287 5.89464 7.26603 5.70711C7.4692 5.51957 7.58333 5.26522 7.58333 5V4H18.4167V5C18.4167 5.26522 18.5308 5.51957 18.734 5.70711C18.9371 5.89464 19.2127 6 19.5 6C19.7873 6 20.0629 5.89464 20.266 5.70711C20.4692 5.51957 20.5833 5.26522 20.5833 5V4H23.8333V8H2.16667V4H5.41667ZM23.8333 24H2.16667V10H23.8333V24ZM17.3333 17C17.3333 17.2652 17.2192 17.5196 17.016 17.7071C16.8129 17.8946 16.5373 18 16.25 18H14.0833V20C14.0833 20.2652 13.9692 20.5196 13.766 20.7071C13.5629 20.8946 13.2873 21 13 21C12.7127 21 12.4371 20.8946 12.234 20.7071C12.0308 20.5196 11.9167 20.2652 11.9167 20V18H9.75C9.46268 18 9.18713 17.8946 8.98397 17.7071C8.7808 17.5196 8.66667 17.2652 8.66667 17C8.66667 16.7348 8.7808 16.4804 8.98397 16.2929C9.18713 16.1054 9.46268 16 9.75 16H11.9167V14C11.9167 13.7348 12.0308 13.4804 12.234 13.2929C12.4371 13.1054 12.7127 13 13 13C13.2873 13 13.5629 13.1054 13.766 13.2929C13.9692 13.4804 14.0833 13.7348 14.0833 14V16H16.25C16.5373 16 16.8129 16.1054 17.016 16.2929C17.2192 16.4804 17.3333 16.7348 17.3333 17Z" fill="white"/>
</svg>
