<svg width="240" height="240" viewBox="0 0 240 240" fill="none" xmlns="http://www.w3.org/2000/svg">
<path d="M240 120C240 186.274 186.274 240 120 240C53.7258 240 0 186.274 0 120C0 53.7258 53.7258 -5.92612e-06 120 -5.92612e-06C186.274 -5.92612e-06 240 53.7258 240 120Z" fill="#536473"/>
<path d="M57.9513 65.4333C58.0157 65.4976 58.0668 65.5739 58.1016 65.658C58.1365 65.742 58.1544 65.8321 58.1544 65.9231C58.1544 66.0141 58.1365 66.1041 58.1016 66.1882C58.0668 66.2722 58.0157 66.3486 57.9513 66.4129L53.1052 71.259C53.0409 71.3234 52.9645 71.3745 52.8805 71.4093C52.7965 71.4441 52.7064 71.4621 52.6154 71.4621C52.5244 71.4621 52.4343 71.4441 52.3503 71.4093C52.2662 71.3745 52.1899 71.3234 52.1256 71.259L50.0487 69.1821C49.9188 69.0522 49.8458 68.876 49.8458 68.6923C49.8458 68.5086 49.9188 68.3324 50.0487 68.2025C50.1786 68.0726 50.3548 67.9996 50.5385 67.9996C50.7222 67.9996 50.8984 68.0726 51.0283 68.2025L52.6154 69.7905L56.9717 65.4333C57.036 65.3689 57.1124 65.3178 57.1964 65.283C57.2805 65.2482 57.3706 65.2302 57.4615 65.2302C57.5525 65.2302 57.6426 65.2482 57.7267 65.283C57.8107 65.3178 57.8871 65.3689 57.9513 65.4333ZM63 68C63 69.78 62.4722 71.5201 61.4832 73.0001C60.4943 74.4802 59.0887 75.6337 57.4442 76.3149C55.7996 76.9961 53.99 77.1743 52.2442 76.8271C50.4984 76.4798 48.8947 75.6226 47.636 74.364C46.3774 73.1053 45.5202 71.5016 45.1729 69.7558C44.8257 68.01 45.0039 66.2004 45.6851 64.5558C46.3663 62.9113 47.5198 61.5057 48.9999 60.5168C50.4799 59.5278 52.22 59 54 59C56.3862 59.0025 58.6739 59.9515 60.3612 61.6388C62.0485 63.3261 62.9975 65.6138 63 68ZM61.6154 68C61.6154 66.4938 61.1688 65.0215 60.332 63.7691C59.4952 62.5168 58.3058 61.5407 56.9143 60.9643C55.5228 60.3879 53.9916 60.2371 52.5143 60.5309C51.0371 60.8248 49.6801 61.5501 48.6151 62.6151C47.5501 63.6801 46.8248 65.0371 46.5309 66.5143C46.2371 67.9916 46.3879 69.5228 46.9643 70.9143C47.5407 72.3058 48.5168 73.4952 49.7691 74.332C51.0215 75.1687 52.4938 75.6154 54 75.6154C56.019 75.6131 57.9547 74.81 59.3824 73.3824C60.81 71.9547 61.6131 70.019 61.6154 68Z" fill="white"/>
<path d="M54 85C52.22 85 50.4799 85.5278 48.9999 86.5168C47.5198 87.5057 46.3663 88.9113 45.6851 90.5558C45.0039 92.2004 44.8257 94.01 45.1729 95.7558C45.5202 97.5016 46.3774 99.1053 47.636 100.364C48.8947 101.623 50.4984 102.48 52.2442 102.827C53.99 103.174 55.7996 102.996 57.4442 102.315C59.0887 101.634 60.4943 100.48 61.4832 99.0001C62.4722 97.5201 63 95.78 63 94C62.9975 91.6138 62.0485 89.3261 60.3612 87.6388C58.6739 85.9515 56.3862 85.0025 54 85ZM54 101.615C52.4938 101.615 51.0215 101.169 49.7691 100.332C48.5168 99.4952 47.5407 98.3058 46.9643 96.9143C46.3879 95.5228 46.2371 93.9916 46.5309 92.5143C46.8248 91.0371 47.5501 89.6801 48.6151 88.6151C49.6801 87.5501 51.0371 86.8248 52.5143 86.5309C53.9916 86.2371 55.5228 86.3879 56.9143 86.9643C58.3058 87.5407 59.4952 88.5168 60.332 89.7691C61.1687 91.0215 61.6154 92.4938 61.6154 94C61.6131 96.019 60.81 97.9547 59.3824 99.3824C57.9547 100.81 56.019 101.613 54 101.615ZM59.5385 94C59.5385 94.1836 59.4655 94.3597 59.3357 94.4895C59.2059 94.6194 59.0298 94.6923 58.8462 94.6923H55.6711L57.9513 96.9717C58.0157 97.0361 58.0667 97.1124 58.1015 97.1965C58.1363 97.2805 58.1542 97.3706 58.1542 97.4615C58.1542 97.5525 58.1363 97.6426 58.1015 97.7266C58.0667 97.8107 58.0157 97.887 57.9513 97.9513C57.887 98.0157 57.8107 98.0667 57.7266 98.1015C57.6426 98.1363 57.5525 98.1542 57.4615 98.1542C57.3706 98.1542 57.2805 98.1363 57.1965 98.1015C57.1124 98.0667 57.0361 98.0157 56.9717 97.9513L53.5102 94.4898C53.4133 94.393 53.3472 94.2696 53.3205 94.1352C53.2937 94.0008 53.3074 93.8616 53.3599 93.735C53.4123 93.6084 53.5011 93.5003 53.6151 93.4242C53.729 93.3481 53.863 93.3076 54 93.3077H58.8462C59.0298 93.3077 59.2059 93.3806 59.3357 93.5105C59.4655 93.6403 59.5385 93.8164 59.5385 94Z" fill="white"/>
<path d="M58.259 117.721L55.9788 120L58.259 122.279C58.3234 122.344 58.3744 122.42 58.4092 122.504C58.444 122.588 58.4619 122.678 58.4619 122.769C58.4619 122.86 58.444 122.95 58.4092 123.034C58.3744 123.118 58.3234 123.195 58.259 123.259C58.1947 123.323 58.1184 123.374 58.0343 123.409C57.9503 123.444 57.8602 123.462 57.7692 123.462C57.6783 123.462 57.5882 123.444 57.5041 123.409C57.4201 123.374 57.3437 123.323 57.2794 123.259L55 120.979L52.7206 123.259C52.6563 123.323 52.5799 123.374 52.4959 123.409C52.4118 123.444 52.3217 123.462 52.2308 123.462C52.1398 123.462 52.0497 123.444 51.9657 123.409C51.8816 123.374 51.8053 123.323 51.741 123.259C51.6766 123.195 51.6256 123.118 51.5908 123.034C51.556 122.95 51.5381 122.86 51.5381 122.769C51.5381 122.678 51.556 122.588 51.5908 122.504C51.6256 122.42 51.6766 122.344 51.741 122.279L54.0213 120L51.741 117.721C51.6111 117.591 51.5381 117.414 51.5381 117.231C51.5381 117.047 51.6111 116.871 51.741 116.741C51.8709 116.611 52.0471 116.538 52.2308 116.538C52.4145 116.538 52.5907 116.611 52.7206 116.741L55 119.021L57.2794 116.741C57.3437 116.677 57.4201 116.626 57.5041 116.591C57.5882 116.556 57.6783 116.538 57.7692 116.538C57.8602 116.538 57.9503 116.556 58.0343 116.591C58.1184 116.626 58.1947 116.677 58.259 116.741C58.3234 116.805 58.3744 116.882 58.4092 116.966C58.444 117.05 58.4619 117.14 58.4619 117.231C58.4619 117.322 58.444 117.412 58.4092 117.496C58.3744 117.58 58.3234 117.656 58.259 117.721ZM64 120C64 121.78 63.4722 123.52 62.4832 125C61.4943 126.48 60.0887 127.634 58.4442 128.315C56.7996 128.996 54.99 129.174 53.2442 128.827C51.4984 128.48 49.8947 127.623 48.636 126.364C47.3774 125.105 46.5202 123.502 46.1729 121.756C45.8257 120.01 46.0039 118.2 46.6851 116.556C47.3663 114.911 48.5198 113.506 49.9999 112.517C51.4799 111.528 53.22 111 55 111C57.3862 111.003 59.6739 111.952 61.3612 113.639C63.0485 115.326 63.9975 117.614 64 120ZM62.6154 120C62.6154 118.494 62.1688 117.021 61.332 115.769C60.4952 114.517 59.3058 113.541 57.9143 112.964C56.5228 112.388 54.9916 112.237 53.5143 112.531C52.0371 112.825 50.6801 113.55 49.6151 114.615C48.5501 115.68 47.8248 117.037 47.5309 118.514C47.2371 119.992 47.3879 121.523 47.9643 122.914C48.5407 124.306 49.5168 125.495 50.7691 126.332C52.0215 127.169 53.4938 127.615 55 127.615C57.019 127.613 58.9547 126.81 60.3824 125.382C61.81 123.955 62.6131 122.019 62.6154 120Z" fill="white"/>
<path d="M56.0385 150.5C56.0385 150.705 55.9776 150.906 55.8635 151.077C55.7493 151.248 55.5872 151.381 55.3974 151.459C55.2076 151.538 54.9988 151.559 54.7974 151.519C54.596 151.478 54.4109 151.38 54.2657 151.234C54.1205 151.089 54.0216 150.904 53.9815 150.703C53.9414 150.501 53.962 150.292 54.0406 150.103C54.1192 149.913 54.2523 149.751 54.4231 149.637C54.5938 149.522 54.7946 149.462 55 149.462C55.2754 149.462 55.5396 149.571 55.7343 149.766C55.9291 149.96 56.0385 150.225 56.0385 150.5ZM55 141.154C53.091 141.154 51.5385 142.551 51.5385 144.269V144.615C51.5385 144.799 51.6114 144.975 51.7412 145.105C51.8711 145.235 52.0472 145.308 52.2308 145.308C52.4144 145.308 52.5905 145.235 52.7203 145.105C52.8501 144.975 52.9231 144.799 52.9231 144.615V144.269C52.9231 143.317 53.8551 142.538 55 142.538C56.1449 142.538 57.0769 143.317 57.0769 144.269C57.0769 145.221 56.1449 146 55 146C54.8164 146 54.6403 146.073 54.5105 146.203C54.3806 146.333 54.3077 146.509 54.3077 146.692V147.385C54.3077 147.568 54.3806 147.744 54.5105 147.874C54.6403 148.004 54.8164 148.077 55 148.077C55.1836 148.077 55.3597 148.004 55.4895 147.874C55.6194 147.744 55.6923 147.568 55.6923 147.385V147.322C57.2708 147.032 58.4615 145.773 58.4615 144.269C58.4615 142.551 56.909 141.154 55 141.154ZM64 146C64 147.78 63.4722 149.52 62.4832 151C61.4943 152.48 60.0887 153.634 58.4442 154.315C56.7996 154.996 54.99 155.174 53.2442 154.827C51.4984 154.48 49.8947 153.623 48.636 152.364C47.3774 151.105 46.5202 149.502 46.1729 147.756C45.8257 146.01 46.0039 144.2 46.6851 142.556C47.3663 140.911 48.5198 139.506 49.9999 138.517C51.4799 137.528 53.22 137 55 137C57.3862 137.003 59.6739 137.952 61.3612 139.639C63.0485 141.326 63.9975 143.614 64 146ZM62.6154 146C62.6154 144.494 62.1688 143.021 61.332 141.769C60.4952 140.517 59.3058 139.541 57.9143 138.964C56.5228 138.388 54.9916 138.237 53.5143 138.531C52.0371 138.825 50.6801 139.55 49.6151 140.615C48.5501 141.68 47.8248 143.037 47.5309 144.514C47.2371 145.992 47.3879 147.523 47.9643 148.914C48.5407 150.306 49.5168 151.495 50.7691 152.332C52.0215 153.169 53.4938 153.615 55 153.615C57.019 153.613 58.9547 152.81 60.3824 151.382C61.81 149.955 62.6131 148.019 62.6154 146Z" fill="white"/>
<path d="M55 163C53.22 163 51.4799 163.528 49.9999 164.517C48.5198 165.506 47.3663 166.911 46.6851 168.556C46.0039 170.2 45.8257 172.01 46.1729 173.756C46.5202 175.502 47.3774 177.105 48.636 178.364C49.8947 179.623 51.4984 180.48 53.2442 180.827C54.99 181.174 56.7996 180.996 58.4442 180.315C60.0887 179.634 61.4943 178.48 62.4832 177C63.4722 175.52 64 173.78 64 172C63.9975 169.614 63.0485 167.326 61.3612 165.639C59.6739 163.952 57.3862 163.003 55 163ZM55 179.615C53.4938 179.615 52.0215 179.169 50.7691 178.332C49.5168 177.495 48.5407 176.306 47.9643 174.914C47.3879 173.523 47.2371 171.992 47.5309 170.514C47.8248 169.037 48.5501 167.68 49.6151 166.615C50.6801 165.55 52.0371 164.825 53.5143 164.531C54.9916 164.237 56.5228 164.388 57.9143 164.964C59.3058 165.541 60.4952 166.517 61.332 167.769C62.1688 169.021 62.6154 170.494 62.6154 172C62.6131 174.019 61.81 175.955 60.3824 177.382C58.9547 178.81 57.019 179.613 55 179.615ZM58.105 167.933C57.9968 167.873 57.8746 167.843 57.7511 167.846C57.6275 167.85 57.5071 167.886 57.4023 167.952L52.9231 170.751V168.538C52.9231 168.355 52.8501 168.179 52.7203 168.049C52.5905 167.919 52.4144 167.846 52.2308 167.846C52.0472 167.846 51.8711 167.919 51.7412 168.049C51.6114 168.179 51.5385 168.355 51.5385 168.538V175.462C51.5385 175.645 51.6114 175.821 51.7412 175.951C51.8711 176.081 52.0472 176.154 52.2308 176.154C52.4144 176.154 52.5905 176.081 52.7203 175.951C52.8501 175.821 52.9231 175.645 52.9231 175.462V173.249L57.4023 176.048C57.5071 176.114 57.6275 176.15 57.751 176.153C57.8745 176.157 57.9966 176.127 58.1047 176.067C58.2128 176.007 58.3029 175.919 58.3656 175.813C58.4284 175.706 58.4615 175.585 58.4615 175.462V168.538C58.4616 168.415 58.4286 168.293 58.3659 168.187C58.3032 168.08 58.2131 167.993 58.105 167.933ZM57.0769 174.213L53.5366 172L57.0769 169.787V174.213Z" fill="white"/>
<path d="M75 63C75 60.7909 76.7909 59 79 59H191C193.209 59 195 60.7909 195 63V73C195 75.2091 193.209 77 191 77H79C76.7909 77 75 75.2091 75 73V63Z" fill="white"/>
<rect x="75" y="85" width="120" height="18" rx="4" fill="white"/>
<rect x="75" y="111" width="120" height="18" rx="4" fill="white"/>
<rect x="75" y="137" width="120" height="18" rx="4" fill="white"/>
<rect x="75" y="163" width="120" height="18" rx="4" fill="white"/>
</svg>
